<svg xmlns="http://www.w3.org/2000/svg" viewBox="0 0 520 120" width="520" height="120">
  <defs>
    <linearGradient id="bgGrad" x1="0%" y1="0%" x2="100%" y2="100%">
      <stop offset="0%" stop-color="#0A2540"/>
      <stop offset="100%" stop-color="#030D1A"/>
    </linearGradient>
    <linearGradient id="goldText" x1="0%" y1="0%" x2="100%" y2="0%">
      <stop offset="0%" stop-color="#F7E7BE"/>
      <stop offset="35%" stop-color="#C9A24B"/>
      <stop offset="70%" stop-color="#E4C67F"/>
      <stop offset="100%" stop-color="#BC8A31"/>
    </linearGradient>
    <linearGradient id="ruleGrad" x1="0%" y1="0%" x2="100%" y2="0%">
      <stop offset="0%" stop-color="#C9A24B" stop-opacity="0.9"/>
      <stop offset="70%" stop-color="#C9A24B" stop-opacity="0.4"/>
      <stop offset="100%" stop-color="#C9A24B" stop-opacity="0"/>
    </linearGradient>
  </defs>

  <!-- Background rounded card -->
  <rect width="100%" height="100%" rx="16" fill="url(#bgGrad)"/>
  <rect width="100%" height="100%" rx="16" fill="none" stroke="#C9A24B" stroke-width="1" stroke-opacity="0.25"/>

  <!-- Compass Emblem -->
  <g transform="translate(32, 20) scale(1.25)">
    <g>
      <circle cx="32" cy="32" r="30.2" fill="none" stroke="#C9A24B" stroke-width="1" opacity=".65"/>
      <circle cx="32" cy="32" r="24.6" fill="none" stroke="#C9A24B" stroke-width=".7" opacity=".35"/>
      <path stroke="#C9A24B" stroke-width="1.1" opacity=".65" stroke-linecap="round" fill="none"
        d="M32 6.2V2.8M44.9 9.65 46.6 6.71M54.34 19.1 57.29 17.4M57.8 32H61.2M54.34 44.9 57.29 46.6M44.9 54.34 46.6 57.29M32 57.8V61.2M19.1 54.34 17.4 57.29M9.66 44.9 6.71 46.6M6.2 32H2.8M9.66 19.1 6.71 17.4M19.1 9.66 17.4 6.71"/>
    </g>
    <g>
      <g fill="#C9A24B" opacity=".4">
        <path d="M42.25 21.75 32 27.6 32 32 36.4 32Z"/><path d="M42.25 42.25 36.4 32 32 32 32 36.4Z"/>
        <path d="M21.75 42.25 32 36.4 32 32 27.6 32Z"/><path d="M21.75 21.75 27.6 32 32 32 32 27.6Z"/>
      </g>
      <g fill="#F7E7BE">
        <path d="M32 9 27.62 27.62 32 32Z"/><path d="M55 32 36.38 27.62 32 32Z"/>
        <path d="M32 55 36.38 36.38 32 32Z"/><path d="M9 32 27.62 36.38 32 32Z"/>
      </g>
      <g fill="#BC8A31">
        <path d="M32 9 32 32 36.38 27.62Z"/><path d="M55 32 32 32 36.38 36.38Z"/>
        <path d="M32 55 32 32 27.62 36.38Z"/><path d="M9 32 32 32 27.62 27.62Z"/>
      </g>
    </g>
    <circle cx="32" cy="32" r="3.8" fill="#0A2540"/>
    <circle cx="32" cy="32" r="3.8" fill="none" stroke="#F7E7BE" stroke-width=".9"/>
  </g>

  <!-- Typography -->
  <g transform="translate(142, 0)">
    <text x="0" y="53" font-family="'Cinzel', 'Playfair Display', 'Georgia', serif" font-weight="700" font-size="28" letter-spacing="5" fill="url(#goldText)">DIRECT VOYAGE</text>
    <line x1="0" y1="68" x2="340" y2="68" stroke="url(#ruleGrad)" stroke-width="1.2"/>
    <text x="2" y="87" font-family="'Inter', 'Montserrat', 'Segoe UI', sans-serif" font-weight="700" font-size="11.5" letter-spacing="5" fill="#E4C67F" opacity="0.9">TRAVEL YOUR WAY</text>
  </g>
</svg>
